<svg xmlns="http://www.w3.org/2000/svg" viewBox="0 0 32 32">
    <path fill="#efefef4f" d="M 27.28125 3.28125 L 24.625 5.9375 L 24.1875 5.46875 C 23.214844 4.496094 21.9375 4 20.65625 4 C 19.375 4 18.097656 4.496094 17.125 5.46875 L 16.40625 6.15625 L 15.5 7.0625 L 14.71875 6.28125 L 13.28125 7.71875 L 16.0625 10.5 L 13.28125 13.28125 L 14.71875 14.71875 L 17.5 11.9375 L 20.0625 14.5 L 17.28125 17.28125 L 18.71875 18.71875 L 21.5 15.9375 L 24.28125 18.71875 L 25.71875 17.28125 L 24.9375 16.5 L 26.53125 14.875 C 28.476563 12.929688 28.476563 9.757813 26.53125 7.8125 L 26.0625 7.375 L 28.71875 4.71875 Z M 20.65625 6 C 21.421875 6 22.191406 6.285156 22.78125 6.875 L 25.125 9.21875 C 26.304688 10.398438 26.304688 12.289063 25.125 13.46875 L 24.875 13.6875 L 23.5 15.0625 L 16.9375 8.5 L 18.53125 6.875 C 19.121094 6.285156 19.890625 6 20.65625 6 Z M 7.71875 13.28125 L 6.28125 14.71875 L 7.0625 15.5 L 5.46875 17.125 C 3.523438 19.070313 3.523438 22.242188 5.46875 24.1875 L 5.90625 24.65625 L 3.28125 27.28125 L 4.71875 28.71875 L 7.34375 26.09375 L 7.8125 26.53125 C 9.757813 28.476563 12.929688 28.476563 14.875 26.53125 L 16.5 24.9375 L 17.28125 25.71875 L 18.71875 24.28125 Z M 8.5 16.9375 L 15.0625 23.5 L 13.46875 25.125 C 12.289063 26.304688 10.398438 26.304688 9.21875 25.125 L 9 24.875 L 6.875 22.78125 C 5.695313 21.601563 5.695313 19.710938 6.875 18.53125 Z"/>
</svg>
