<svg xmlns="http://www.w3.org/2000/svg" viewBox="0 0 16 16">
<path fill="#00ff67" d="M 13.644531 1.648438 L 12.15625 3.132813 L 11.839844 2.816406 C 11.296875 2.273438 10.582031 2 9.867188 2 C 9.148438 2.003906 8.433594 2.273438 7.890625 2.820313 L 6.707031 4 L 6.351563 3.648438 L 5.648438 4.351563 L 11.644531 10.355469 L 12.355469 9.648438 L 12 9.292969 L 13.183594 8.109375 C 14.269531 7.023438 14.269531 5.246094 13.183594 4.160156 L 12.863281 3.84375 L 14.355469 2.351563 Z M 9.867188 3 C 10.324219 2.996094 10.78125 3.171875 11.132813 3.523438 L 12.476563 4.867188 C 13.179688 5.570313 13.179688 6.699219 12.476563 7.402344 L 11.292969 8.585938 L 7.414063 4.707031 L 8.597656 3.523438 C 8.949219 3.171875 9.40625 3 9.867188 3 Z M 4.351563 5.648438 L 3.648438 6.351563 L 4 6.707031 L 2.816406 7.890625 C 1.730469 8.976563 1.730469 10.753906 2.816406 11.839844 L 3.132813 12.15625 L 1.648438 13.644531 L 2.351563 14.355469 L 3.84375 12.863281 L 4.160156 13.183594 C 5.246094 14.269531 7.023438 14.269531 8.109375 13.183594 L 9.292969 12 L 9.648438 12.355469 L 10.355469 11.644531 Z M 4.707031 7.414063 L 8.585938 11.292969 L 7.402344 12.472656 C 6.699219 13.179688 5.570313 13.179688 4.867188 12.472656 L 3.523438 11.132813 C 2.820313 10.429688 2.820313 9.300781 3.523438 8.597656 Z"></path></svg>