<svg xmlns="http://www.w3.org/2000/svg" viewBox="0 0 32 32">
    <path fill="#efefef4f" d="M 20.46875 2.5625 L 19.75 3.3125 C 18.707031 4.460938 18.207031 5.917969 18.09375 7.375 L 14.03125 11.4375 C 11.558594 11 8.902344 11.691406 7 13.59375 L 6.28125 14.3125 L 7 15 L 11.3125 19.3125 L 3 27.59375 L 3 29 L 4.40625 29 L 12.6875 20.6875 L 16.90625 24.90625 L 17.59375 25.625 L 18.3125 24.90625 C 20.410156 22.808594 21.003906 19.933594 20.375 17.34375 L 23.9375 13.78125 C 25.675781 13.988281 27.449219 13.488281 28.71875 12.21875 L 29.40625 11.5 L 28.71875 10.78125 L 21.21875 3.28125 Z M 20.6875 5.625 L 26.375 11.3125 C 25.550781 11.78125 24.660156 12.070313 23.75 11.84375 L 23.1875 11.6875 L 18.15625 16.71875 L 18.34375 17.3125 C 18.929688 19.074219 18.660156 21.0625 17.5 22.6875 L 9.3125 14.5 C 10.765625 13.5 12.519531 13.042969 14.15625 13.46875 L 14.6875 13.625 L 20 8.3125 L 20 7.90625 C 20 7.101563 20.292969 6.34375 20.6875 5.625 Z"/>
</svg>
