<svg xmlns="http://www.w3.org/2000/svg" viewBox="0 0 32 32">
    <path fill="#efefef4f" d="M 3.71875 2.28125 L 2.28125 3.71875 L 28.28125 29.71875 L 29.71875 28.28125 L 21.75 20.3125 C 21.988281 19.230469 22.070313 18.113281 21.875 17 L 29.4375 11.46875 L 20.53125 2.5625 L 15 10.125 C 13.890625 9.925781 12.765625 10.015625 11.6875 10.25 Z M 20.78125 5.625 L 26.375 11.21875 L 19.59375 16.1875 L 19.78125 16.84375 C 19.929688 17.410156 20.007813 17.988281 20 18.5625 L 13.4375 12 C 14.011719 11.992188 14.589844 12.070313 15.15625 12.21875 L 15.8125 12.40625 Z M 8.21875 11.84375 C 7.964844 12.042969 7.730469 12.269531 7.5 12.5 L 6.78125 13.1875 L 12.09375 18.5 L 4 26.59375 L 4 28 L 5.40625 28 L 13.5 19.90625 L 18.8125 25.21875 L 19.5 24.5 C 19.730469 24.269531 19.957031 24.035156 20.15625 23.78125 Z"/>
</svg>
